<?xml version="1.0" encoding="utf-8" ?>	<!-- Generator: Assembly 2.4 - http://assemblyapp.co -->	<svg version="1.1" xmlns="http://www.w3.org/2000/svg" xmlns:xlink="http://www.w3.org/1999/xlink" width="4096.00" height="4096.00" viewBox="0 0 4096.0 4096.0">		<g id="document" transform="scale(1.0 1.0) translate(2048.0 2048.0)">			<path d="M-177.872,-392.623 L-498.58,-392.623 L-498.58,1210.91 L-177.872,1210.91 L-177.872,-392.623 Z M-1460.7,-392.623 L-1781.41,-392.623 L-1781.41,1210.91 L-1460.7,1210.91 L-1460.7,-392.623 Z " fill="#ffffff" fill-opacity="1.00" />			<path d="M-979.64,-873.683 C-713.453,-873.683 -498.58,-658.81 -498.58,-392.623 L-498.58,409.145 L-177.872,409.145 L-177.872,-392.623 C-177.872,-835.199 -537.064,-1194.39 -979.64,-1194.39 L-1781.41,-1194.39 L-1781.41,-873.683 L-979.64,-873.683 Z " fill="#ffffff" fill-opacity="1.00" />			<path d="M605.578,-392.623 C605.578,-658.81 820.452,-873.683 1086.64,-873.683 L1888.41,-873.683 L1888.41,-1194.39 L1086.64,-1194.39 C644.063,-1194.39 284.871,-835.199 284.871,-392.623 L284.871,409.145 L605.578,409.145 L605.578,-392.623 Z " fill="#ffffff" fill-opacity="1.00" />			<path d="M284.871,1210.91 L605.578,1210.91 L605.578,-392.623 L284.871,-392.623 L284.871,1210.91 Z " fill="#ffffff" fill-opacity="1.00" />			<path d="M375.725,4.65524e-05 L375.725,212.999 L1440.72,212.999 L1440.72,1.42109e-14 L375.725,4.65524e-05 Z " fill="#ffffff" fill-opacity="1.00" />		</g>	</svg>